<?xml version="1.0" standalone="no"?>
<!DOCTYPE svg PUBLIC "-//W3C//DTD SVG 20010904//EN"
 "http://www.w3.org/TR/2001/REC-SVG-20010904/DTD/svg10.dtd">
<svg version="1.0" xmlns="http://www.w3.org/2000/svg"
 width="512.000000pt" height="512.000000pt" viewBox="0 0 512.000000 512.000000"
 preserveAspectRatio="xMidYMid meet">
<metadata>
Created by potrace 1.14, written by Peter Selinger 2001-2017
</metadata>
<g transform="translate(0.000000,512.000000) scale(0.100000,-0.100000)"
fill="#000000" stroke="none">
<path d="M2685 4780 c-22 -11 -76 -52 -120 -91 -102 -89 -129 -104 -230 -123
-142 -27 -402 -135 -536 -222 -99 -64 -260 -227 -337 -341 -146 -215 -216
-391 -247 -623 -12 -89 -13 -536 -1 -600 2 -14 7 -41 10 -60 10 -58 27 -133
36 -160 18 -53 21 -82 9 -74 -8 4 -9 3 -5 -5 4 -6 11 -9 15 -6 11 6 23 -54 14
-68 -3 -5 -2 -7 4 -4 7 5 33 -45 38 -73 0 -3 9 -22 19 -42 10 -20 14 -42 10
-49 -4 -7 -3 -9 3 -6 5 3 17 -12 27 -34 14 -30 15 -43 6 -54 -8 -9 -8 -15 0
-20 6 -4 9 -3 8 2 -2 4 2 9 7 11 6 1 10 -4 10 -10 0 -7 6 -19 13 -26 6 -7 12
-19 12 -27 0 -7 -6 -16 -12 -19 -7 -3 -2 -3 11 0 19 5 23 3 18 -10 -4 -9 -3
-16 2 -16 9 0 57 -100 53 -112 -1 -4 2 -8 7 -8 5 0 30 -42 56 -93 26 -50 52
-98 57 -105 6 -6 7 -12 2 -12 -5 0 -4 -4 1 -8 6 -4 18 -21 28 -39 13 -24 14
-32 5 -36 -8 -3 -5 -6 6 -6 11 -1 16 -6 13 -15 -3 -8 -1 -16 4 -18 5 -2 11
-13 12 -25 0 -12 6 -21 11 -20 6 1 10 -3 11 -10 0 -6 3 -15 8 -19 4 -4 7 -14
7 -22 0 -9 7 -24 17 -34 15 -17 15 -18 0 -18 -9 0 -31 -13 -49 -29 l-33 -29
-2 -157 c-2 -111 1 -161 10 -171 25 -31 55 -59 73 -70 16 -9 12 -11 -21 -11
-94 -1 -167 -38 -203 -102 -22 -39 -23 -49 -21 -247 1 -113 5 -200 9 -193 5 8
10 5 15 -10 3 -11 3 -26 -1 -33 -6 -10 -4 -10 8 0 14 11 17 10 23 -7 3 -11 9
-20 13 -19 13 3 52 -13 48 -20 -2 -4 6 -7 17 -8 12 -1 50 -2 84 -4 42 -2 60
-7 56 -14 -5 -8 -2 -7 8 0 20 17 802 17 792 0 -5 -8 -3 -8 8 0 19 16 162 16
152 1 -5 -9 -3 -9 8 -1 9 8 96 12 275 12 232 0 266 2 300 18 22 10 47 29 57
41 10 13 23 21 27 18 5 -3 7 3 5 15 -2 11 0 22 6 25 13 9 12 377 -2 412 -25
67 -100 112 -189 113 -30 1 -48 4 -39 8 9 4 29 22 45 41 29 35 29 36 32 188 4
141 2 155 -17 187 -12 19 -35 39 -52 45 -26 9 -28 12 -17 30 6 11 16 17 22 14
5 -3 6 -1 2 5 -9 15 4 63 15 56 5 -3 6 1 4 9 -7 17 38 83 54 79 7 -1 10 2 7 7
-3 4 7 27 23 49 32 43 75 121 76 137 1 6 5 9 10 8 6 -1 11 11 11 25 1 15 4 38
8 52 14 48 13 205 -1 272 -28 136 -107 273 -227 393 -39 39 -157 135 -263 214
-106 79 -189 149 -186 154 3 6 1 7 -4 4 -12 -7 -65 41 -58 52 2 4 -5 14 -16
21 -24 18 -25 34 -1 21 9 -5 19 -9 22 -9 22 0 81 -16 85 -23 3 -4 12 -6 20 -2
8 3 15 1 15 -3 0 -5 12 -9 28 -10 67 -3 176 -15 186 -22 6 -3 17 -8 24 -9 6
-2 18 -5 25 -7 6 -2 22 -7 35 -11 12 -4 22 -12 22 -17 0 -5 4 -7 8 -4 4 2 28
-4 52 -15 36 -16 42 -22 30 -30 -12 -9 -11 -10 4 -5 12 4 39 -8 80 -35 33 -23
63 -46 64 -51 2 -4 7 -6 12 -3 5 3 14 -1 22 -8 7 -8 26 -17 41 -21 15 -3 27
-11 27 -17 0 -6 -5 -7 -12 -3 -7 4 -8 3 -4 -5 6 -8 11 -9 20 -1 9 7 25 6 55
-5 22 -8 41 -10 41 -5 0 6 8 10 18 10 18 0 78 59 74 73 -1 4 3 7 10 7 6 0 8 3
5 6 -14 14 15 44 43 44 19 0 41 12 67 37 21 20 41 36 45 35 4 -1 4 6 1 15 -4
11 -3 14 5 9 7 -4 10 -2 7 6 -6 15 49 161 57 153 3 -3 4 6 3 20 -2 14 0 27 5
30 4 2 6 49 5 102 -5 170 -29 209 -284 464 -231 232 -276 278 -382 398 -41 46
-89 100 -106 120 -18 20 -40 52 -49 71 -48 102 -63 126 -103 161 -30 27 -67
46 -113 60 -38 12 -72 28 -75 37 -4 8 -7 45 -8 81 -3 97 -3 98 -32 126 -33 30
-29 30 -78 5z"/>
<path d="M2890 2939 c0 -5 5 -7 10 -4 6 3 10 8 10 11 0 2 -4 4 -10 4 -5 0 -10
-5 -10 -11z"/>
<path d="M2830 2936 c0 -2 8 -10 18 -17 15 -13 16 -12 3 4 -13 16 -21 21 -21
13z"/>
<path d="M3799 2873 c-13 -16 -12 -17 4 -4 16 13 21 21 13 21 -2 0 -10 -8 -17
-17z"/>
<path d="M3230 2820 c0 -5 5 -10 11 -10 5 0 7 5 4 10 -3 6 -8 10 -11 10 -2 0
-4 -4 -4 -10z"/>
<path d="M3735 2820 c3 -5 8 -10 11 -10 2 0 4 5 4 10 0 6 -5 10 -11 10 -5 0
-7 -4 -4 -10z"/>
<path d="M3770 2819 c0 -5 5 -7 10 -4 6 3 10 8 10 11 0 2 -4 4 -10 4 -5 0 -10
-5 -10 -11z"/>
<path d="M3690 2800 c0 -5 5 -10 11 -10 5 0 7 5 4 10 -3 6 -8 10 -11 10 -2 0
-4 -4 -4 -10z"/>
<path d="M3490 2666 c0 -2 7 -7 16 -10 8 -3 12 -2 9 4 -6 10 -25 14 -25 6z"/>
<path d="M1350 2216 c0 -2 8 -10 18 -17 15 -13 16 -12 3 4 -13 16 -21 21 -21
13z"/>
<path d="M1546 338 c3 -5 10 -6 15 -3 13 9 11 12 -6 12 -8 0 -12 -4 -9 -9z"/>
<path d="M2415 300 c3 -5 8 -10 11 -10 2 0 4 5 4 10 0 6 -5 10 -11 10 -5 0 -7
-4 -4 -10z"/>
<path d="M3335 280 c-3 -5 -1 -10 4 -10 6 0 11 5 11 10 0 6 -2 10 -4 10 -3 0
-8 -4 -11 -10z"/>
<path d="M1670 259 c0 -5 5 -7 10 -4 6 3 10 8 10 11 0 2 -4 4 -10 4 -5 0 -10
-5 -10 -11z"/>
</g>
</svg>
